# xmcd
#
# Track frame offsets:
#	150
#	15827
#	31654
#	46056
#	63958
#	81460
#	95412
#	119789
#	139141
#	153393
#	170645
#	188272
#	203649
#	218876
#	240628
#	260130
#	279707
#	295534
#	313961
#
# Disc length: 4456 seconds
#
# Revision: 0
# Processed by: cddbd v1.5.2PL0 Copyright (c) Steve Scherf et al.
# Submitted via: EasyCDDAExtractor 9.1.3.1
#
DISCID=0d116613
DTITLE=Pantazhs Lefterhs - Dikeoma Mou
DYEAR=1900
DGENRE=Acid
TTITLE0=Krima Ta Filia Mou
TTITLE1=Nevra Tendomena
TTITLE2=Niose Me
TTITLE3=Dikeoma Mou
TTITLE4=Nihta Ke Kati
TTITLE5=Ftani Ftani
TTITLE6=Ase Me
TTITLE7=Zografia Mou
TTITLE8=Ti Pandremenos
TTITLE9=To Karavi
TTITLE10=Kegome Kegome
TTITLE11=I Ora Tou Aliti
TTITLE12=Enas Akoma
TTITLE13=Na Pethanoume Mazi
TTITLE14=Klise Thesi
TTITLE15=Zoi Epifaniaki
TTITLE16=I Ethniki ton Mousikon
TTITLE17=Se Thelo
TTITLE18=Ke Trigirzo
EXTD=
EXTT0=
EXTT1=
EXTT2=
EXTT3=
EXTT4=
EXTT5=
EXTT6=
EXTT7=
EXTT8=
EXTT9=
EXTT10=
EXTT11=
EXTT12=
EXTT13=
EXTT14=
EXTT15=
EXTT16=
EXTT17=
EXTT18=
PLAYORDER=
